<?xml version="1.0"?><svg width="640" height="480" xmlns="http://www.w3.org/2000/svg" xmlns:xlink="http://www.w3.org/1999/xlink">
 <title>Banner Invitation</title>
 <defs>
  <linearGradient x1="-3334.3982" y1="1024.2295" x2="-3333.8845" y2="1273.4926" id="linearGradient5871" xlink:href="#linearGradient5708" gradientUnits="userSpaceOnUse" gradientTransform="matrix(1.044054,0,0,1.044054,-2277.879,1873.4706)"/>
  <linearGradient x1="-2623.9741" y1="1264.686" x2="-2720.1628" y2="1473.3542" id="linearGradient5869" xlink:href="#linearGradient5679" gradientUnits="userSpaceOnUse" gradientTransform="matrix(1.7184642,0.1301753,-0.14732017,1.9027997,-1004.0036,1095.477)"/>
  <linearGradient x1="-2640.6948" y1="1102.1641" x2="-2292.2996" y2="1362.692" id="linearGradient5867" xlink:href="#linearGradient5679" gradientUnits="userSpaceOnUse" gradientTransform="matrix(1.7008429,0,0,1.9351728,-1243.2706,707.72911)"/>
  <linearGradient x1="-2644.5242" y1="1537.2383" x2="-2657.9844" y2="1729.6282" id="linearGradient5865" xlink:href="#linearGradient5689" gradientUnits="userSpaceOnUse" gradientTransform="matrix(1.044054,0,0,1.044054,-1211.2995,1054.8402)"/>
  <linearGradient x1="-3334.3982" y1="1024.2295" x2="-3319.5154" y2="1449.5322" id="linearGradient5714" xlink:href="#linearGradient5708" gradientUnits="userSpaceOnUse"/>
  <linearGradient x1="-609.69836" y1="1204.9586" x2="-338.74597" y2="1185.6586" id="linearGradient4171" xlink:href="#linearGradient4091" gradientUnits="userSpaceOnUse" gradientTransform="matrix(2.3882528,0,0,2.4745204,-2017.1123,-1076.2059)"/>
  <linearGradient x1="-329.39478" y1="433.80698" x2="485.84375" y2="353.6633" id="linearGradient4169" xlink:href="#linearGradient4099" gradientUnits="userSpaceOnUse" gradientTransform="matrix(2.3600228,0,0,2.3600227,-2518.8783,800.95457)"/>
  <linearGradient id="linearGradient4091">
   <stop id="stop4093" offset="0" stop-color="#eeeeee"/>
   <stop id="stop4095" offset="1" stop-opacity="0" stop-color="#eeeeee"/>
  </linearGradient>
  <linearGradient id="linearGradient4099">
   <stop id="stop4101" offset="0" stop-color="#2c8400"/>
   <stop id="stop4103" offset="1" stop-opacity="0" stop-color="#339900"/>
  </linearGradient>
  <linearGradient id="linearGradient5679">
   <stop id="stop5681" offset="0" stop-color="#eeeeee"/>
   <stop id="stop5683" offset="1" stop-opacity="0" stop-color="#eeeeee"/>
  </linearGradient>
  <linearGradient id="linearGradient5689">
   <stop id="stop5691" offset="0" stop-color="#b50000"/>
   <stop id="stop5693" offset="1" stop-opacity="0" stop-color="#b50000"/>
  </linearGradient>
  <linearGradient id="linearGradient5708">
   <stop id="stop5710" offset="0" stop-color="#eeeeee"/>
   <stop id="stop5712" offset="1" stop-opacity="0" stop-color="#eeeeee"/>
  </linearGradient>
 </defs>
 <metadata id="metadata7">image/svg+xml</metadata>
 <g>
  <title>Layer 1</title>
  <path opacity="0.6" transform="rotate(-30.955806732177734 -0.47843745350824113,171.21179199218753) " d="m-0.478437,157.745102c101.196112,36.543716 200.663679,37.061279 305.875135,-5.592102" id="path21185" stroke-width="1.075828px" stroke="#000000" fill="none"/>
  <path opacity="0.6" id="svg_1" transform="rotate(2.251833200454712 63.638065338134815,34.63526916503896) " d="m63.638065,-0.843889c130.304516,96.277597 258.383266,97.641169 393.85815,-14.732881" stroke-width="1.075828px" stroke="#000000" fill="none"/>
  <path opacity="0.6" id="svg_2" transform="rotate(29.99187469482422 444.0245056152344,19.80775833129878) " d="m444.024506,-5.83629c101.196136,69.588671 200.663727,70.574251 305.875214,-10.648809" stroke-width="1.075828px" stroke="#000000" fill="none"/>
  <path opacity="0.6" id="svg_3" transform="rotate(-10.478843688964844 -13.988691329955948,104.94104003906253) " d="m-13.988691,62.028168c130.30451,116.450012 258.383268,118.099289 393.858137,-17.819763" stroke-width="1.075828px" stroke="#000000" fill="none"/>
  <g transform="rotate(21.221172332763672 347.6437683105468,30.547378540038967) " id="g21159">
   <path d="m337.593964,52.353027l-5.438934,-43.611298l30.977478,11.426117l-25.538544,32.185181z" id="path21074" fill="#60e6f2"/>
   <path d="m348.213776,33.190613c-0.414856,1.564423 -1.281616,2.603119 -2.60022,3.115967c-1.180939,0.459564 -2.458771,0.435791 -3.833527,-0.071259c-1.76059,-0.649414 -2.995239,-1.81781 -3.703918,-3.505219c-0.145813,0.549927 -0.231567,0.856567 -0.257202,0.919983c-0.154327,0.34903 -0.368164,0.473145 -0.641479,0.372314c-0.337646,-0.124542 -0.436096,-0.452301 -0.295288,-0.983246l0.875,-3.299561c0.14325,-0.540436 0.383759,-0.748383 0.721436,-0.62384c0.144684,0.053375 0.250183,0.154724 0.316467,0.304108c-0.023163,0.386993 -0.042328,0.775452 -0.057495,1.165405c-0.02829,0.739014 0.178101,1.491699 0.619141,2.258057c0.55658,0.996399 1.469971,1.728821 2.740173,2.197327c1.07724,0.397369 2.082214,0.434998 3.014923,0.112823c1.0784,-0.372467 1.778534,-1.165527 2.100372,-2.37915c0.394714,-1.488556 -0.100006,-2.78479 -1.484131,-3.888672c-1.309326,-0.920074 -2.617371,-1.84491 -3.924164,-2.774536c-1.351471,-1.227112 -1.789581,-2.736633 -1.314423,-4.528656c0.374634,-1.412689 1.16272,-2.371063 2.364288,-2.875092c1.082458,-0.454224 2.242706,-0.453033 3.480743,0.003571c1.414856,0.521942 2.493317,1.497406 3.235229,2.926392c0.211182,-0.796417 0.485626,-1.132355 0.823303,-1.007843c0.337585,0.124573 0.436035,0.452301 0.295258,0.983246l-0.807098,3.043549c-0.140808,0.530975 -0.380005,0.734192 -0.717682,0.609619c-0.144714,-0.053345 -0.246185,-0.153229 -0.304443,-0.299622l0.038666,-1.094269c0.037292,-0.673248 -0.134674,-1.356018 -0.51593,-2.048279c-0.490784,-0.878418 -1.266754,-1.513336 -2.327911,-1.904755c-0.956696,-0.352875 -1.854919,-0.377106 -2.694611,-0.072723c-0.956268,0.344666 -1.577759,1.057434 -1.86438,2.138306c-0.377167,1.422211 0.131409,2.66629 1.525574,3.732178l3.935516,2.731903c1.343903,1.255554 1.763153,2.836212 1.257843,4.741974" id="path21107" fill="#60e6f2"/>
  </g>
  <g transform="rotate(44.47248077392578 463.19152832031244,43.07620239257815) " id="g21154">
   <path d="m457.931458,63.375977l-10.110596,-40.599548l30.741364,5.980438l-20.630768,34.61911z" id="path21086" fill="#ff9191"/>
   <path d="m467.260742,37.089233c-0.159241,1.138519 -0.620514,2.063629 -1.383881,2.77533c-0.687683,0.639404 -1.544464,1.052612 -2.570404,1.239655c-0.462494,0.084015 -0.999542,0.085846 -1.611115,0.005554c-0.444061,-0.047791 -1.007172,-0.152466 -1.689331,-0.314148c-0.912201,-0.216156 -1.44809,-0.339722 -1.607666,-0.370789l-0.781677,5.58905l0.84967,0.165283c0.446747,0.086914 0.641846,0.332672 0.585266,0.737274c-0.055267,0.395172 -0.306305,0.549316 -0.753052,0.462402l-2.704529,-0.526154c-0.446777,-0.086914 -0.642548,-0.327972 -0.58725,-0.723145c0.05658,-0.404572 0.308258,-0.563416 0.755035,-0.476532l0.84964,0.165283l1.977936,-14.141937l-0.84967,-0.165283c-0.446747,-0.086884 -0.641876,-0.332642 -0.585297,-0.737274c0.055298,-0.395142 0.306305,-0.549286 0.753082,-0.462402l5.335297,1.052429c1.244537,0.242157 2.261719,0.879791 3.051483,1.912933c0.845612,1.102051 1.167786,2.372864 0.966461,3.812439m-1.005249,-0.195557c0.148712,-1.063202 -0.110535,-2.022156 -0.77771,-2.876831c-0.611267,-0.785828 -1.379608,-1.268738 -2.305084,-1.448792l-3.578094,-0.696075l-1.030426,7.36734l3.207153,0.623932c0.981293,0.190918 1.908264,0.037781 2.780914,-0.459351c0.980194,-0.563171 1.547974,-1.399933 1.703247,-2.510223" id="path21109" fill="#ff9191"/>
  </g>
  <g transform="rotate(26.573965072631836 397.9236450195313,68.634017944336) " id="g21149">
   <path d="m396.200592,87.319923l-13.150238,-37.371803l29.746582,1.958992l-16.596344,35.412811z" id="path21084" fill="#60e6f2"/>
   <path d="m403.184357,71.893036c-0.018066,0.382385 -0.243286,0.559341 -0.675598,0.530853l-1.608917,-0.119629l-3.576416,-7.386711l-3.323425,-0.218849l-0.283203,5.981781l0.822174,0.054123c0.432312,0.028473 0.639191,0.238472 0.620667,0.629951c-0.018127,0.382385 -0.243317,0.55938 -0.675629,0.530899l-2.617035,-0.172356c-0.432312,-0.028473 -0.639404,-0.233917 -0.621307,-0.616318c0.018524,-0.391479 0.243958,-0.572983 0.67627,-0.544518l0.822174,0.054146l0.647888,-13.684341l-0.822174,-0.054138c-0.432281,-0.028465 -0.639191,-0.238449 -0.620636,-0.629959c0.018097,-0.38237 0.243317,-0.559357 0.675598,-0.530914l5.395538,0.369064c1.096191,0.072189 2.053558,0.541656 2.872131,1.408379c0.877228,0.934593 1.285919,2.034615 1.226013,3.300148c-0.087952,1.857384 -1.268555,3.158722 -3.541809,3.904037l3.164917,6.510223l0.822144,0.054153c0.432281,0.028473 0.639191,0.23848 0.620636,0.629974m-2.03598,-11.217056c0.04306,-0.910461 -0.294464,-1.713554 -1.012695,-2.409302c-0.659027,-0.637054 -1.389984,-0.982025 -2.192841,-1.034897l-3.578125,-0.235641l-0.310394,6.555344l2.651764,0.174622c0.972687,0.064072 1.899994,-0.139709 2.781921,-0.611343c1.057312,-0.578835 1.610779,-1.391762 1.66037,-2.438782" id="path21111" fill="#60e6f2"/>
  </g>
  <g transform="rotate(17.653419494628906 459.59664916992193,92.8319702148438) " id="g21144">
   <g id="g21191">
    <path d="m461.772614,111.672073l-17.070068,-35.206268l29.788208,-2.473938l-12.71814,37.680206z" id="path21082" fill="#60e6f2"/>
    <path d="m462.155884,95.755447c0.022858,0.382935 -0.182159,0.592361 -0.615051,0.628342l-2.620697,0.217636c-0.432922,0.03595 -0.660797,-0.137543 -0.683685,-0.520462c-0.023407,-0.392044 0.181366,-0.606049 0.614258,-0.641998l0.823334,-0.068375l-0.818207,-13.703461l-0.823334,0.06839c-0.432892,0.035934 -0.661072,-0.14212 -0.684479,-0.53418c-0.022858,-0.382919 0.182159,-0.592331 0.615082,-0.628311l2.620697,-0.217651c0.432892,-0.035934 0.660797,0.137543 0.683655,0.520462c0.023407,0.392075 -0.181335,0.606064 -0.614258,0.641998l-0.823303,0.068375l0.818207,13.703461l0.823303,-0.068375c0.432922,-0.03595 0.661072,0.142105 0.684479,0.534149" id="path21113" fill="#60e6f2"/>
   </g>
  </g>
  <g transform="rotate(-17.2192325592041 422.0470886230468,45.871658325195234) " id="g21139">
   <path d="m428.65387,66.860931l-22.228149,-34.466949l31.242737,-7.511597l-9.014587,41.978546z" id="path21080" fill="#ff9191"/>
   <path d="m429.91153,32.59433c0.071045,0.411194 -0.120453,0.671387 -0.574493,0.780518l-0.863495,0.207611l2.692596,15.577454l-1.313568,0.315826l-10.124237,-13.208038l2.387634,13.813202l0.863495,-0.207642c0.454071,-0.109161 0.716614,0.04184 0.787689,0.453064c0.069427,0.401611 -0.122894,0.657013 -0.576965,0.766174l-2.748657,0.660828c-0.454041,0.109192 -0.715759,-0.037048 -0.785187,-0.43866c-0.071075,-0.411224 0.120422,-0.671387 0.574463,-0.780548l0.863525,-0.207611l-2.484314,-14.37262l-0.863495,0.207642c-0.454071,0.109161 -0.716614,-0.04184 -0.787689,-0.453064c-0.069427,-0.401581 0.122864,-0.656982 0.576904,-0.766144l2.167358,-0.506195l10.141388,13.233856l-2.392578,-13.841888l-0.863495,0.207611c-0.454071,0.109192 -0.716644,-0.041809 -0.787689,-0.453033c-0.069458,-0.401611 0.122864,-0.657043 0.576935,-0.766205l2.748657,-0.660828c0.45401,-0.109161 0.715759,0.037048 0.785217,0.43869" id="path21115" fill="#ff9191"/>
  </g>
  <g id="g21134">
   <path d="m75.8078,174.860931l-24.432678,-30.274719l29.293335,-11.12616l-4.860657,41.400879z" id="path21078" fill="#a8db60"/>
   <path d="m75.228271,152.037994c0.102844,0.376587 -0.172607,0.689041 -0.826416,0.937317l1.322021,4.841644c-1.21283,1.519516 -2.533936,2.55072 -3.963074,3.093552c-1.908203,0.724747 -3.620056,0.66246 -5.135803,-0.186844c-1.553406,-0.864685 -2.633728,-2.408783 -3.240845,-4.632355l-0.565552,-2.071121c-0.543579,-1.990433 -0.44873,-3.901703 0.284424,-5.733826c0.730713,-1.841049 1.936096,-3.080658 3.61615,-3.718796c1.543274,-0.586136 2.98291,-0.58374 4.31897,0.007233c-0.107666,-0.394485 -0.163635,-0.645386 -0.167725,-0.752686c-0.010193,-0.283096 0.106262,-0.470856 0.349609,-0.563278c0.319275,-0.121231 0.547485,0.069168 0.68457,0.571243l0.697815,2.555298c0.137085,0.502106 0.045959,0.813766 -0.273315,0.935043c-0.197693,0.075089 -0.369873,-0.017853 -0.516602,-0.278778c-0.288696,-0.503891 -0.475525,-0.804031 -0.560547,-0.900406c-0.327759,-0.370316 -0.776428,-0.615479 -1.346191,-0.73555c-0.922852,-0.183853 -1.855591,-0.096771 -2.798218,0.261276c-1.862549,0.707428 -3.02478,2.351196 -3.486511,4.931259c-0.180359,0.998718 -0.12738,2.022598 0.159119,3.071609l0.56189,2.057648c0.528809,1.936676 1.451904,3.258469 2.769287,3.965378c1.259521,0.679413 2.721741,0.702972 4.386658,0.070602c1.033813,-0.3927 2.059387,-1.138474 3.076721,-2.237366l-1.142151,-4.182617l-3.295532,1.251724c-0.42572,0.161713 -0.690002,0.054276 -0.792847,-0.322296c-0.105286,-0.385529 0.054993,-0.659149 0.480652,-0.820862l4.610657,-1.736374c0.42572,-0.161652 0.690002,-0.05423 0.792786,0.322327" id="path21117" fill="#a8db60"/>
  </g>
  <path opacity="0.6" id="svg_4" transform="rotate(2.9027669429779053 322.0113220214843,30.941040039062553) " d="m322.011322,-11.971832c130.304504,116.450012 258.38327,118.099289 393.858124,-17.819763" stroke-width="1.075828px" stroke="#000000" fill="none"/>
  <g id="svg_5" transform="rotate(20.019277572631836 29.92364501953126,109.63401794433592) ">
   <path id="svg_6" d="m28.200592,128.319916l-13.150238,-37.371796l29.746582,1.958992l-16.596344,35.412804z" fill="#60e6f2"/>
   <path id="svg_7" d="m35.184357,112.893036c-0.018066,0.382385 -0.243286,0.559341 -0.675598,0.530853l-1.608917,-0.119629l-3.576416,-7.386711l-3.323425,-0.218849l-0.283203,5.981781l0.822174,0.054123c0.432312,0.028473 0.639191,0.238472 0.620667,0.629951c-0.018127,0.382385 -0.243317,0.55938 -0.675629,0.530899l-2.617035,-0.172356c-0.432312,-0.028473 -0.639404,-0.233917 -0.621307,-0.616318c0.018524,-0.391479 0.243958,-0.572983 0.67627,-0.544518l0.822174,0.054146l0.647888,-13.684341l-0.822174,-0.054138c-0.432281,-0.028465 -0.639191,-0.238449 -0.620636,-0.629959c0.018097,-0.38237 0.243317,-0.559357 0.675598,-0.530914l5.395538,0.369064c1.096191,0.072189 2.053558,0.541656 2.872131,1.408379c0.877228,0.934593 1.285919,2.034615 1.226013,3.300148c-0.087952,1.857384 -1.268555,3.158722 -3.541809,3.904037l3.164917,6.510223l0.822144,0.054153c0.432281,0.028473 0.639191,0.23848 0.620636,0.629974m-2.03598,-11.217056c0.04306,-0.910461 -0.294464,-1.713554 -1.012695,-2.409302c-0.659027,-0.637054 -1.389984,-0.982025 -2.192841,-1.034897l-3.578125,-0.235641l-0.310394,6.555344l2.651764,0.174622c0.972687,0.064072 1.899994,-0.139709 2.781921,-0.611343c1.057312,-0.578835 1.610779,-1.391762 1.66037,-2.438782" fill="#60e6f2"/>
  </g>
  <g id="svg_8" transform="rotate(26.573965072631836 120.92364501953125,57.634021759033196) ">
   <path id="svg_9" d="m119.200592,76.319923l-13.150238,-37.371803l29.746582,1.958992l-16.596344,35.412811z" fill="#ff9191"/>
   <path id="svg_10" d="m126.184357,60.893036c-0.018066,0.382385 -0.243286,0.559341 -0.675598,0.530853l-1.608917,-0.119629l-3.576416,-7.386711l-3.323425,-0.218849l-0.283203,5.981781l0.822174,0.054123c0.432312,0.028473 0.639191,0.238472 0.620667,0.629951c-0.018127,0.382385 -0.243317,0.55938 -0.675629,0.530899l-2.617035,-0.172356c-0.432312,-0.028473 -0.639404,-0.233917 -0.621307,-0.616318c0.018524,-0.391479 0.243958,-0.572983 0.67627,-0.544518l0.822174,0.054146l0.647888,-13.684341l-0.822174,-0.054138c-0.432281,-0.028465 -0.639191,-0.238449 -0.620636,-0.629959c0.018097,-0.38237 0.243317,-0.559357 0.675598,-0.530914l5.395538,0.369064c1.096191,0.072189 2.053558,0.541656 2.872131,1.408379c0.877228,0.934593 1.285919,2.034615 1.226013,3.300148c-0.087952,1.857384 -1.268555,3.158722 -3.541809,3.904037l3.164917,6.510223l0.822144,0.054153c0.432281,0.028473 0.639191,0.23848 0.620636,0.629974m-2.03598,-11.217056c0.04306,-0.910461 -0.294464,-1.713554 -1.012695,-2.409302c-0.659027,-0.637054 -1.389984,-0.982025 -2.192841,-1.034897l-3.578125,-0.235641l-0.310394,6.555344l2.651764,0.174622c0.972687,0.064072 1.899994,-0.139709 2.781921,-0.611343c1.057312,-0.578835 1.610779,-1.391762 1.66037,-2.438782" fill="#ff9191"/>
  </g>
  <g id="svg_11" transform="rotate(26.573965072631836 556.9236450195313,133.63401794433585) ">
   <path id="svg_12" d="m555.200562,152.319916l-13.150208,-37.371796l29.746582,1.959l-16.596375,35.412796z" fill="#ff9191"/>
   <path id="svg_13" d="m562.184326,136.893036c-0.018066,0.382385 -0.243286,0.559341 -0.675537,0.530853l-1.608948,-0.119629l-3.576416,-7.386703l-3.323425,-0.218857l-0.283203,5.981781l0.822144,0.054123c0.432373,0.028473 0.639221,0.23848 0.620728,0.629959c-0.018188,0.38237 -0.243347,0.559372 -0.675659,0.530884l-2.617065,-0.172348c-0.432251,-0.028473 -0.639404,-0.233917 -0.621277,-0.616318c0.018494,-0.391479 0.243958,-0.572983 0.67627,-0.544525l0.822205,0.054153l0.647827,-13.684341l-0.822144,-0.054138c-0.432312,-0.028458 -0.63916,-0.238449 -0.620605,-0.629959c0.018066,-0.38237 0.243286,-0.559357 0.675537,-0.530914l5.395569,0.369064c1.096191,0.072189 2.053589,0.541656 2.872131,1.408386c0.877197,0.934586 1.28595,2.034607 1.226013,3.30014c-0.087952,1.857391 -1.268555,3.158722 -3.541809,3.904037l3.164917,6.510223l0.822144,0.054153c0.432312,0.028473 0.63916,0.23848 0.620605,0.629974m-2.03595,-11.217056c0.04303,-0.910461 -0.294434,-1.713547 -1.012695,-2.409302c-0.658997,-0.637054 -1.390015,-0.982025 -2.19281,-1.034897l-3.578125,-0.235641l-0.310425,6.555344l2.651733,0.174622c0.972717,0.064072 1.900024,-0.139709 2.781982,-0.611343c1.057251,-0.578842 1.610718,-1.391769 1.660339,-2.438782" fill="#ff9191"/>
  </g>
  <g id="svg_14">
   <path id="svg_15" d="m371.8078,91.860931l-24.432678,-30.274719l29.293335,-11.12616l-4.860657,41.400879z" fill="#f98b8b"/>
   <path id="svg_16" d="m371.228271,69.037994c0.102844,0.376587 -0.172607,0.689041 -0.826416,0.937317l1.322021,4.841644c-1.21283,1.519516 -2.533936,2.55072 -3.963074,3.093552c-1.908203,0.724747 -3.620056,0.66246 -5.135803,-0.186844c-1.553406,-0.864685 -2.633728,-2.408783 -3.240845,-4.632355l-0.565552,-2.071121c-0.543579,-1.990433 -0.44873,-3.901703 0.284424,-5.733826c0.730713,-1.841049 1.936096,-3.080658 3.61615,-3.718796c1.543274,-0.586136 2.98291,-0.58374 4.31897,0.007233c-0.107666,-0.394485 -0.163635,-0.645386 -0.167725,-0.752686c-0.010193,-0.283096 0.106262,-0.470856 0.349609,-0.563278c0.319275,-0.121231 0.547485,0.069168 0.68457,0.571243l0.697815,2.555298c0.137085,0.502106 0.045959,0.813766 -0.273315,0.935043c-0.197693,0.075089 -0.369873,-0.017853 -0.516602,-0.278778c-0.288696,-0.503891 -0.475525,-0.804031 -0.560547,-0.900406c-0.327759,-0.370316 -0.776428,-0.615479 -1.346191,-0.73555c-0.922852,-0.183853 -1.855591,-0.096771 -2.798218,0.261276c-1.862549,0.707428 -3.02478,2.351196 -3.486511,4.931259c-0.180359,0.998718 -0.12738,2.022598 0.159119,3.071609l0.56189,2.057648c0.528809,1.936676 1.451904,3.258469 2.769287,3.965378c1.259521,0.679413 2.721741,0.702972 4.386658,0.070602c1.033813,-0.3927 2.059387,-1.138474 3.076721,-2.237366l-1.142151,-4.182617l-3.295532,1.251724c-0.42572,0.161713 -0.690002,0.054276 -0.792847,-0.322296c-0.105286,-0.385529 0.054993,-0.659149 0.480652,-0.820862l4.610657,-1.736374c0.42572,-0.161652 0.690002,-0.05423 0.792786,0.322327" fill="#f98b8b"/>
  </g>
  <g id="svg_17">
   <path id="svg_18" d="m610.8078,103.860931l-24.432678,-30.274719l29.293335,-11.12616l-4.860657,41.400879z" fill="#82e3ff"/>
   <path id="svg_19" d="m610.228271,81.037994c0.102844,0.376587 -0.172607,0.689041 -0.826416,0.937317l1.322021,4.841644c-1.21283,1.519516 -2.533936,2.55072 -3.963074,3.093552c-1.908203,0.724747 -3.620056,0.66246 -5.135803,-0.186844c-1.553406,-0.864685 -2.633728,-2.408783 -3.240845,-4.632355l-0.565552,-2.071121c-0.543579,-1.990433 -0.44873,-3.901703 0.284424,-5.733826c0.730713,-1.841049 1.936096,-3.080658 3.61615,-3.718796c1.543274,-0.586136 2.98291,-0.58374 4.31897,0.007233c-0.107666,-0.394485 -0.163635,-0.645386 -0.167725,-0.752686c-0.010193,-0.283096 0.106262,-0.470856 0.349609,-0.563278c0.319275,-0.121231 0.547485,0.069168 0.68457,0.571243l0.697815,2.555298c0.137085,0.502106 0.045959,0.813766 -0.273315,0.935043c-0.197693,0.075089 -0.369873,-0.017853 -0.516602,-0.278778c-0.288696,-0.503891 -0.475525,-0.804031 -0.560547,-0.900406c-0.327759,-0.370316 -0.776428,-0.615479 -1.346191,-0.73555c-0.922852,-0.183853 -1.855591,-0.096771 -2.798218,0.261276c-1.862549,0.707428 -3.02478,2.351196 -3.486511,4.931259c-0.180359,0.998718 -0.12738,2.022598 0.159119,3.071609l0.56189,2.057648c0.528809,1.936676 1.451904,3.258469 2.769287,3.965378c1.259521,0.679413 2.721741,0.702972 4.386658,0.070602c1.033813,-0.3927 2.059387,-1.138474 3.076721,-2.237366l-1.142151,-4.182617l-3.295532,1.251724c-0.42572,0.161713 -0.690002,0.054276 -0.792847,-0.322296c-0.105286,-0.385529 0.054993,-0.659149 0.480652,-0.820862l4.610657,-1.736374c0.42572,-0.161652 0.690002,-0.05423 0.792786,0.322327" fill="#82e3ff"/>
  </g>
  <g id="svg_20" transform="rotate(0.5951595306396484 534.5966186523406,99.83197021484293) ">
   <g id="svg_21">
    <path id="svg_22" d="m536.772583,118.672073l-17.070068,-35.206268l29.788208,-2.473938l-12.71814,37.680206z" fill="#60e6f2"/>
    <path id="svg_23" d="m537.155884,102.755447c0.022827,0.382935 -0.182129,0.592361 -0.615051,0.628342l-2.620667,0.217636c-0.432922,0.03595 -0.660828,-0.137543 -0.683716,-0.520462c-0.023438,-0.392044 0.181396,-0.606049 0.614258,-0.641998l0.823364,-0.068375l-0.818237,-13.703461l-0.823364,0.06839c-0.432861,0.035934 -0.661072,-0.14212 -0.684448,-0.53418c-0.022888,-0.382919 0.182129,-0.592331 0.615112,-0.628311l2.620667,-0.217651c0.432922,-0.035934 0.660828,0.137543 0.683655,0.520462c0.023438,0.392075 -0.181335,0.606064 -0.614258,0.641998l-0.823303,0.068375l0.818237,13.703461l0.823303,-0.068375c0.432922,-0.03595 0.661072,0.142105 0.684448,0.534149" fill="#60e6f2"/>
   </g>
  </g>
  <g id="svg_24" transform="rotate(45.45491409301758 498.9236450195313,90.63401794433594) ">
   <path id="svg_25" d="m497.200592,109.319916l-13.150238,-37.371796l29.746582,1.958992l-16.596344,35.412804z" fill="#ff9191"/>
   <path id="svg_26" d="m504.184357,93.893036c-0.018066,0.382385 -0.243286,0.559341 -0.675598,0.530853l-1.608917,-0.119629l-3.576416,-7.386711l-3.323425,-0.218849l-0.283203,5.981781l0.822174,0.054123c0.432312,0.028473 0.639191,0.238472 0.620667,0.629951c-0.018127,0.382385 -0.243317,0.55938 -0.675629,0.530899l-2.617035,-0.172356c-0.432312,-0.028473 -0.639404,-0.233917 -0.621307,-0.616318c0.018524,-0.391479 0.243958,-0.572983 0.67627,-0.544518l0.822174,0.054146l0.647888,-13.684341l-0.822174,-0.054138c-0.432281,-0.028465 -0.639191,-0.238449 -0.620636,-0.629959c0.018097,-0.38237 0.243317,-0.559357 0.675598,-0.530914l5.395538,0.369064c1.096191,0.072189 2.053558,0.541656 2.872131,1.408379c0.877228,0.934593 1.285919,2.034615 1.226013,3.300148c-0.087952,1.857384 -1.268555,3.158722 -3.541809,3.904037l3.164917,6.510223l0.822144,0.054153c0.432281,0.028473 0.639191,0.23848 0.620636,0.629974m-2.03598,-11.217056c0.04306,-0.910461 -0.294464,-1.713554 -1.012695,-2.409302c-0.659027,-0.637054 -1.389984,-0.982025 -2.192841,-1.034897l-3.578125,-0.235641l-0.310394,6.555344l2.651764,0.174622c0.972687,0.064072 1.899994,-0.139709 2.781921,-0.611343c1.057312,-0.578835 1.610779,-1.391762 1.66037,-2.438782" fill="#ff9191"/>
  </g>
  <g transform="rotate(31.554393768310547 611.0217895507815,151.16049194335932) " id="svg_27">
   <path id="svg_28" d="m620.8078,171.860931l-24.432678,-30.274719l29.293335,-11.12616l-4.860657,41.400879z" fill="#ff9191"/>
   <path id="svg_29" d="m620.228271,149.037994c0.102844,0.376587 -0.172607,0.689041 -0.826416,0.937317l1.322021,4.841644c-1.21283,1.519516 -2.533936,2.55072 -3.963074,3.093552c-1.908203,0.724747 -3.620056,0.66246 -5.135803,-0.186844c-1.553406,-0.864685 -2.633728,-2.408783 -3.240845,-4.632355l-0.565552,-2.071121c-0.543579,-1.990433 -0.44873,-3.901703 0.284424,-5.733826c0.730713,-1.841049 1.936096,-3.080658 3.61615,-3.718796c1.543274,-0.586136 2.98291,-0.58374 4.31897,0.007233c-0.107666,-0.394485 -0.163635,-0.645386 -0.167725,-0.752686c-0.010193,-0.283096 0.106262,-0.470856 0.349609,-0.563278c0.319275,-0.121231 0.547485,0.069168 0.68457,0.571243l0.697815,2.555298c0.137085,0.502106 0.045959,0.813766 -0.273315,0.935043c-0.197693,0.075089 -0.369873,-0.017853 -0.516602,-0.278778c-0.288696,-0.503891 -0.475525,-0.804031 -0.560547,-0.900406c-0.327759,-0.370316 -0.776428,-0.615479 -1.346191,-0.73555c-0.922852,-0.183853 -1.855591,-0.096771 -2.798218,0.261276c-1.862549,0.707428 -3.02478,2.351196 -3.486511,4.931259c-0.180359,0.998718 -0.12738,2.022598 0.159119,3.071609l0.56189,2.057648c0.528809,1.936676 1.451904,3.258469 2.769287,3.965378c1.259521,0.679413 2.721741,0.702972 4.386658,0.070602c1.033813,-0.3927 2.059387,-1.138474 3.076721,-2.237366l-1.142151,-4.182617l-3.295532,1.251724c-0.42572,0.161713 -0.690002,0.054276 -0.792847,-0.322296c-0.105286,-0.385529 0.054993,-0.659149 0.480652,-0.820862l4.610657,-1.736374c0.42572,-0.161652 0.690002,-0.05423 0.792786,0.322327" fill="#ff9191"/>
  </g>
  <g id="svg_30" transform="rotate(-5.159517765045166 309.5966186523438,89.83197021484422) ">
   <g id="svg_31">
    <path id="svg_32" d="m311.772583,108.672073l-17.070068,-35.206268l29.788208,-2.473938l-12.71814,37.680206z" fill="#f98b8b"/>
    <path id="svg_33" d="m312.155884,92.755447c0.022827,0.382935 -0.182129,0.592361 -0.615051,0.628342l-2.620667,0.217636c-0.432922,0.03595 -0.660828,-0.137543 -0.683716,-0.520462c-0.023438,-0.392044 0.181396,-0.606049 0.614258,-0.641998l0.823364,-0.068375l-0.818237,-13.703461l-0.823364,0.06839c-0.432861,0.035934 -0.661072,-0.14212 -0.684448,-0.53418c-0.022888,-0.382919 0.182129,-0.592331 0.615112,-0.628311l2.620667,-0.217651c0.432922,-0.035934 0.660828,0.137543 0.683655,0.520462c0.023438,0.392075 -0.181335,0.606064 -0.614258,0.641998l-0.823303,0.068375l0.818237,13.703461l0.823303,-0.068375c0.432922,-0.03595 0.661072,0.142105 0.684448,0.534149" fill="#f98b8b"/>
   </g>
  </g>
  <g id="svg_34" transform="rotate(1.7301403284072876 246.923645019531,94.63401794433574) ">
   <path id="svg_35" d="m245.200562,113.319916l-13.150208,-37.371796l29.746582,1.958992l-16.596375,35.412804z" fill="#f98b8b"/>
   <path id="svg_36" d="m252.184326,97.893036c-0.018066,0.382385 -0.243286,0.559341 -0.675537,0.530853l-1.608948,-0.119629l-3.576416,-7.386711l-3.323425,-0.218849l-0.283203,5.981781l0.822144,0.054123c0.432373,0.028473 0.639221,0.23848 0.620728,0.629959c-0.018188,0.38237 -0.243347,0.559372 -0.675659,0.530884l-2.617065,-0.172348c-0.432251,-0.028473 -0.639404,-0.233917 -0.621277,-0.616318c0.018494,-0.391479 0.243958,-0.572983 0.67627,-0.544525l0.822205,0.054153l0.647827,-13.684341l-0.822144,-0.054138c-0.432312,-0.028465 -0.63916,-0.238449 -0.620605,-0.629959c0.018066,-0.38237 0.243286,-0.559357 0.675537,-0.530914l5.395569,0.369064c1.096191,0.072189 2.053589,0.541656 2.872131,1.408379c0.877197,0.934593 1.28595,2.034615 1.226013,3.300148c-0.087952,1.857384 -1.268555,3.158722 -3.541809,3.904037l3.164917,6.510223l0.822144,0.054153c0.432312,0.028473 0.63916,0.23848 0.620605,0.629974m-2.03595,-11.217056c0.04303,-0.910461 -0.294434,-1.713554 -1.012695,-2.409302c-0.658997,-0.637054 -1.390015,-0.982025 -2.19281,-1.034897l-3.578125,-0.235641l-0.310425,6.555344l2.651733,0.174622c0.972717,0.064072 1.900024,-0.139709 2.781982,-0.611343c1.057251,-0.578835 1.610718,-1.391762 1.660339,-2.438782" fill="#f98b8b"/>
  </g>
  <g id="svg_37" transform="rotate(18.244733810424805 177.92364501953125,81.6340179443359) ">
   <path id="svg_38" d="m176.200562,100.319916l-13.150208,-37.371796l29.746582,1.958992l-16.596375,35.412804z" fill="#f98b8b"/>
   <path id="svg_39" d="m183.184326,84.893036c-0.018066,0.382385 -0.243286,0.559341 -0.675537,0.530853l-1.608948,-0.119629l-3.576416,-7.386711l-3.323425,-0.218849l-0.283203,5.981781l0.822144,0.054123c0.432373,0.028473 0.639221,0.238472 0.620728,0.629951c-0.018188,0.382385 -0.243347,0.55938 -0.675659,0.530899l-2.617065,-0.172356c-0.432251,-0.028473 -0.639404,-0.233917 -0.621277,-0.616318c0.018494,-0.391479 0.243958,-0.572983 0.67627,-0.544518l0.822205,0.054146l0.647827,-13.684341l-0.822144,-0.054138c-0.432312,-0.028465 -0.63916,-0.238449 -0.620605,-0.629959c0.018066,-0.38237 0.243286,-0.559357 0.675537,-0.530914l5.395569,0.369064c1.096191,0.072189 2.053589,0.541656 2.872131,1.408379c0.877197,0.934593 1.28595,2.034615 1.226013,3.300148c-0.087952,1.857384 -1.268555,3.158722 -3.541809,3.904037l3.164917,6.510223l0.822144,0.054153c0.432312,0.028473 0.63916,0.23848 0.620605,0.629974m-2.03595,-11.217056c0.04303,-0.910461 -0.294434,-1.713554 -1.012695,-2.409302c-0.658997,-0.637054 -1.390015,-0.982025 -2.19281,-1.034897l-3.578125,-0.235641l-0.310425,6.555344l2.651733,0.174622c0.972717,0.064072 1.900024,-0.139709 2.781982,-0.611343c1.057251,-0.578835 1.610718,-1.391762 1.660339,-2.438782" fill="#f98b8b"/>
  </g>
  <g id="svg_40" transform="rotate(16.193883895874023 76.64376831054686,26.54737854003903) ">
   <path id="svg_41" d="m66.593964,48.353027l-5.438934,-43.611298l30.977478,11.426117l-25.538544,32.185181z" fill="#ff9191"/>
   <path id="svg_42" d="m77.213776,29.190613c-0.414856,1.564423 -1.281616,2.603119 -2.60022,3.115967c-1.180939,0.459564 -2.458771,0.435791 -3.833527,-0.071259c-1.76059,-0.649414 -2.995239,-1.81781 -3.703918,-3.505219c-0.145813,0.549927 -0.231567,0.856567 -0.257202,0.919983c-0.154327,0.34903 -0.368164,0.473145 -0.641479,0.372314c-0.337646,-0.124542 -0.436096,-0.452301 -0.295288,-0.983246l0.875,-3.299561c0.14325,-0.540436 0.383759,-0.748383 0.721436,-0.62384c0.144684,0.053375 0.250183,0.154724 0.316467,0.304108c-0.023163,0.386993 -0.042328,0.775452 -0.057495,1.165405c-0.02829,0.739014 0.178101,1.491699 0.619141,2.258057c0.55658,0.996399 1.469971,1.728821 2.740173,2.197327c1.07724,0.397369 2.082214,0.434998 3.014923,0.112823c1.0784,-0.372467 1.778534,-1.165527 2.100372,-2.37915c0.394714,-1.488556 -0.100006,-2.78479 -1.484131,-3.888672c-1.309326,-0.920074 -2.617371,-1.84491 -3.924164,-2.774536c-1.351471,-1.227112 -1.789581,-2.736633 -1.314423,-4.528656c0.374634,-1.412689 1.16272,-2.371063 2.364288,-2.875092c1.082458,-0.454224 2.242706,-0.453033 3.480743,0.003571c1.414856,0.521942 2.493317,1.497406 3.235229,2.926392c0.211182,-0.796417 0.485626,-1.132355 0.823303,-1.007843c0.337585,0.124573 0.436035,0.452301 0.295258,0.983246l-0.807098,3.043549c-0.140808,0.530975 -0.380005,0.734192 -0.717682,0.609619c-0.144714,-0.053345 -0.246185,-0.153229 -0.304443,-0.299622l0.038666,-1.094269c0.037292,-0.673248 -0.134674,-1.356018 -0.51593,-2.048279c-0.490784,-0.878418 -1.266754,-1.513336 -2.327911,-1.904755c-0.956696,-0.352875 -1.854919,-0.377106 -2.694611,-0.072723c-0.956268,0.344666 -1.577759,1.057434 -1.86438,2.138306c-0.377167,1.422211 0.131409,2.66629 1.525574,3.732178l3.935516,2.731903c1.343903,1.255554 1.763153,2.836212 1.257843,4.741974" fill="#ff9191"/>
  </g>
  <g transform="rotate(-23.55692481994629 320.0217895507813,48.160491943359325) " id="svg_43">
   <path id="svg_44" d="m329.8078,68.860931l-24.432678,-30.274719l29.293335,-11.12616l-4.860657,41.400879z" fill="#60e6f2"/>
   <path id="svg_45" d="m329.228271,46.037994c0.102844,0.376587 -0.172607,0.689041 -0.826416,0.937317l1.322021,4.841644c-1.21283,1.519516 -2.533936,2.55072 -3.963074,3.093552c-1.908203,0.724747 -3.620056,0.66246 -5.135803,-0.186844c-1.553406,-0.864685 -2.633728,-2.408783 -3.240845,-4.632355l-0.565552,-2.071121c-0.543579,-1.990433 -0.44873,-3.901703 0.284424,-5.733826c0.730713,-1.841049 1.936096,-3.080658 3.61615,-3.718796c1.543274,-0.586136 2.98291,-0.58374 4.31897,0.007233c-0.107666,-0.394485 -0.163635,-0.645386 -0.167725,-0.752686c-0.010193,-0.283096 0.106262,-0.470856 0.349609,-0.563278c0.319275,-0.121231 0.547485,0.069168 0.68457,0.571243l0.697815,2.555298c0.137085,0.502106 0.045959,0.813766 -0.273315,0.935043c-0.197693,0.075089 -0.369873,-0.017853 -0.516602,-0.278778c-0.288696,-0.503891 -0.475525,-0.804031 -0.560547,-0.900406c-0.327759,-0.370316 -0.776428,-0.615479 -1.346191,-0.73555c-0.922852,-0.183853 -1.855591,-0.096771 -2.798218,0.261276c-1.862549,0.707428 -3.02478,2.351196 -3.486511,4.931259c-0.180359,0.998718 -0.12738,2.022598 0.159119,3.071609l0.56189,2.057648c0.528809,1.936676 1.451904,3.258469 2.769287,3.965378c1.259521,0.679413 2.721741,0.702972 4.386658,0.070602c1.033813,-0.3927 2.059387,-1.138474 3.076721,-2.237366l-1.142151,-4.182617l-3.295532,1.251724c-0.42572,0.161713 -0.690002,0.054276 -0.792847,-0.322296c-0.105286,-0.385529 0.054993,-0.659149 0.480652,-0.820862l4.610657,-1.736374c0.42572,-0.161652 0.690002,-0.05423 0.792786,0.322327" fill="#60e6f2"/>
  </g>
  <g id="svg_46" transform="rotate(-39.878665924072266 282.9236450195312,85.63401794433597) ">
   <path id="svg_47" d="m281.200562,104.319916l-13.150208,-37.371796l29.746582,1.959l-16.596375,35.412796z" fill="#60e6f2"/>
   <path id="svg_48" d="m288.184326,88.893036c-0.018066,0.382385 -0.243286,0.559341 -0.675537,0.530853l-1.608948,-0.119629l-3.576416,-7.386703l-3.323425,-0.218857l-0.283203,5.981781l0.822144,0.054123c0.432373,0.028473 0.639221,0.23848 0.620728,0.629959c-0.018188,0.38237 -0.243347,0.559372 -0.675659,0.530884l-2.617065,-0.172348c-0.432251,-0.028473 -0.639404,-0.233917 -0.621277,-0.616318c0.018494,-0.391479 0.243958,-0.572983 0.67627,-0.544525l0.822205,0.054153l0.647827,-13.684341l-0.822144,-0.054138c-0.432312,-0.028458 -0.63916,-0.238449 -0.620605,-0.629959c0.018066,-0.38237 0.243286,-0.559357 0.675537,-0.530914l5.395569,0.369064c1.096191,0.072189 2.053589,0.541656 2.872131,1.408386c0.877197,0.934586 1.28595,2.034607 1.226013,3.30014c-0.087952,1.857391 -1.268555,3.158722 -3.541809,3.904037l3.164917,6.510223l0.822144,0.054153c0.432312,0.028473 0.63916,0.23848 0.620605,0.629974m-2.03595,-11.217056c0.04303,-0.910461 -0.294434,-1.713547 -1.012695,-2.409302c-0.658997,-0.637054 -1.390015,-0.982025 -2.19281,-1.034897l-3.578125,-0.235641l-0.310425,6.555344l2.651733,0.174622c0.972717,0.064072 1.900024,-0.139709 2.781982,-0.611343c1.057251,-0.578842 1.610718,-1.391769 1.660339,-2.438782" fill="#60e6f2"/>
  </g>
  <g id="svg_49" transform="rotate(-27.465532302856445 228.92364501953128,115.634017944336) ">
   <path id="svg_50" d="m227.200562,134.319916l-13.150208,-37.371796l29.746582,1.959l-16.596375,35.412796z" fill="#60e6f2"/>
   <path id="svg_51" d="m234.184326,118.893036c-0.018066,0.382385 -0.243286,0.559357 -0.675537,0.530853l-1.608948,-0.119629l-3.576416,-7.386703l-3.323425,-0.218857l-0.283203,5.981781l0.822144,0.054123c0.432373,0.028473 0.639221,0.23848 0.620728,0.629959c-0.018188,0.382385 -0.243347,0.559387 -0.675659,0.530884l-2.617065,-0.172363c-0.432251,-0.028442 -0.639404,-0.233887 -0.621277,-0.616302c0.018494,-0.391479 0.243958,-0.572983 0.67627,-0.544525l0.822205,0.054153l0.647827,-13.684341l-0.822144,-0.054138c-0.432312,-0.028458 -0.63916,-0.238449 -0.620605,-0.629959c0.018066,-0.38237 0.243286,-0.559357 0.675537,-0.530914l5.395569,0.369064c1.096191,0.072189 2.053589,0.541656 2.872131,1.408386c0.877197,0.934586 1.28595,2.034607 1.226013,3.30014c-0.087952,1.857391 -1.268555,3.158722 -3.541809,3.904037l3.164917,6.510239l0.822144,0.054138c0.432312,0.028473 0.63916,0.238495 0.620605,0.629974m-2.03595,-11.217056c0.04303,-0.910461 -0.294434,-1.713547 -1.012695,-2.409302c-0.658997,-0.637054 -1.390015,-0.982025 -2.19281,-1.034897l-3.578125,-0.235641l-0.310425,6.555344l2.651733,0.174622c0.972717,0.064072 1.900024,-0.139709 2.781982,-0.611343c1.057251,-0.578842 1.610718,-1.391769 1.660339,-2.438782" fill="#60e6f2"/>
  </g>
  <g id="svg_52" transform="rotate(-6.4634108543396 165.92364501953142,131.63401794433602) ">
   <path id="svg_53" d="m164.200562,150.319916l-13.150208,-37.371796l29.746582,1.959l-16.596375,35.412796z" fill="#60e6f2"/>
   <path id="svg_54" d="m171.184326,134.893036c-0.018066,0.382385 -0.243286,0.559341 -0.675537,0.530853l-1.608948,-0.119629l-3.576416,-7.386703l-3.323425,-0.218857l-0.283203,5.981781l0.822144,0.054123c0.432373,0.028473 0.639221,0.23848 0.620728,0.629959c-0.018188,0.38237 -0.243347,0.559372 -0.675659,0.530884l-2.617065,-0.172348c-0.432251,-0.028473 -0.639404,-0.233917 -0.621277,-0.616318c0.018494,-0.391479 0.243958,-0.572983 0.67627,-0.544525l0.822205,0.054153l0.647827,-13.684341l-0.822144,-0.054138c-0.432312,-0.028458 -0.63916,-0.238449 -0.620605,-0.629959c0.018066,-0.38237 0.243286,-0.559357 0.675537,-0.530914l5.395569,0.369064c1.096191,0.072189 2.053589,0.541656 2.872131,1.408386c0.877197,0.934586 1.28595,2.034607 1.226013,3.30014c-0.087952,1.857391 -1.268555,3.158722 -3.541809,3.904037l3.164917,6.510223l0.822144,0.054153c0.432312,0.028473 0.63916,0.23848 0.620605,0.629974m-2.03595,-11.217056c0.04303,-0.910461 -0.294434,-1.713547 -1.012695,-2.409302c-0.658997,-0.637054 -1.390015,-0.982025 -2.19281,-1.034897l-3.578125,-0.235641l-0.310425,6.555344l2.651733,0.174622c0.972717,0.064072 1.900024,-0.139709 2.781982,-0.611343c1.057251,-0.578842 1.610718,-1.391769 1.660339,-2.438782" fill="#60e6f2"/>
  </g>
  <g id="svg_55" transform="rotate(6.790136337280273 96.92364501953112,129.63401794433594) ">
   <path id="svg_56" d="m95.200562,148.319916l-13.150208,-37.371796l29.746582,1.959l-16.596375,35.412796z" fill="#60e6f2"/>
   <path id="svg_57" d="m102.184326,132.893036c-0.018066,0.382385 -0.243286,0.559341 -0.675537,0.530853l-1.608948,-0.119629l-3.576416,-7.386703l-3.323425,-0.218857l-0.283203,5.981781l0.822144,0.054123c0.432373,0.028473 0.639221,0.23848 0.620728,0.629959c-0.018188,0.38237 -0.243347,0.559372 -0.675659,0.530884l-2.617065,-0.172348c-0.432251,-0.028473 -0.639404,-0.233917 -0.621277,-0.616318c0.018494,-0.391479 0.243958,-0.572983 0.67627,-0.544525l0.822205,0.054153l0.647827,-13.684341l-0.822144,-0.054138c-0.432312,-0.028458 -0.63916,-0.238449 -0.620605,-0.629959c0.018066,-0.38237 0.243286,-0.559357 0.675537,-0.530914l5.395569,0.369064c1.096191,0.072189 2.053589,0.541656 2.872131,1.408386c0.877197,0.934586 1.28595,2.034607 1.226013,3.30014c-0.087952,1.857391 -1.268555,3.158722 -3.541809,3.904037l3.164917,6.510223l0.822144,0.054153c0.432312,0.028473 0.63916,0.23848 0.620605,0.629974m-2.03595,-11.217056c0.04303,-0.910461 -0.294434,-1.713547 -1.012695,-2.409302c-0.658997,-0.637054 -1.390015,-0.982025 -2.19281,-1.034897l-3.578125,-0.235641l-0.310425,6.555344l2.651733,0.174622c0.972717,0.064072 1.900024,-0.139709 2.781982,-0.611343c1.057251,-0.578842 1.610718,-1.391769 1.660339,-2.438782" fill="#60e6f2"/>
  </g>
  <g id="svg_58" transform="rotate(-34.38722229003906 15.643768310546868,170.54737854003906) ">
   <path id="svg_59" d="m5.593964,192.353027l-5.438934,-43.611298l30.977478,11.426117l-25.538544,32.185181z" fill="#a8db60"/>
   <path id="svg_60" d="m16.213776,173.190613c-0.414856,1.564423 -1.281616,2.603119 -2.60022,3.115967c-1.180939,0.459564 -2.458771,0.435791 -3.833527,-0.071259c-1.76059,-0.649414 -2.995239,-1.81781 -3.703918,-3.505219c-0.145813,0.549927 -0.231567,0.856567 -0.257202,0.919983c-0.154327,0.34903 -0.368164,0.473145 -0.641479,0.372314c-0.337646,-0.124542 -0.436096,-0.452301 -0.295288,-0.983246l0.875,-3.299561c0.14325,-0.540436 0.383759,-0.748383 0.721436,-0.62384c0.144684,0.053375 0.250183,0.154724 0.316467,0.304108c-0.023163,0.386993 -0.042328,0.775452 -0.057495,1.165405c-0.02829,0.739014 0.178101,1.491699 0.619141,2.258057c0.55658,0.996399 1.469971,1.728821 2.740173,2.197327c1.07724,0.397369 2.082214,0.434998 3.014923,0.112823c1.0784,-0.372467 1.778534,-1.165527 2.100372,-2.37915c0.394714,-1.488556 -0.100006,-2.78479 -1.484131,-3.888672c-1.309326,-0.920074 -2.617371,-1.84491 -3.924164,-2.774536c-1.351471,-1.227112 -1.789581,-2.736633 -1.314423,-4.528656c0.374634,-1.412689 1.16272,-2.371063 2.364288,-2.875092c1.082458,-0.454224 2.242706,-0.453033 3.480743,0.003571c1.414856,0.521942 2.493317,1.497406 3.235229,2.926392c0.211182,-0.796417 0.485626,-1.132355 0.823303,-1.007843c0.337585,0.124573 0.436035,0.452301 0.295258,0.983246l-0.807098,3.043549c-0.140808,0.530975 -0.380005,0.734192 -0.717682,0.609619c-0.144714,-0.053345 -0.246185,-0.153229 -0.304443,-0.299622l0.038666,-1.094269c0.037292,-0.673248 -0.134674,-1.356018 -0.51593,-2.048279c-0.490784,-0.878418 -1.266754,-1.513336 -2.327911,-1.904755c-0.956696,-0.352875 -1.854919,-0.377106 -2.694611,-0.072723c-0.956268,0.344666 -1.577759,1.057434 -1.86438,2.138306c-0.377167,1.422211 0.131409,2.66629 1.525574,3.732178l3.935516,2.731903c1.343903,1.255554 1.763153,2.836212 1.257843,4.741974" fill="#a8db60"/>
  </g>
  <g id="svg_61" transform="rotate(-38.23368453979492 133.92364501953128,126.63401794433595) ">
   <path id="svg_62" d="m132.200562,145.319916l-13.150208,-37.371796l29.746582,1.959l-16.596375,35.412796z" fill="#a8db60"/>
   <path id="svg_63" d="m139.184326,129.893036c-0.018066,0.382385 -0.243286,0.559357 -0.675537,0.530853l-1.608948,-0.119629l-3.576416,-7.386703l-3.323425,-0.218857l-0.283203,5.981781l0.822144,0.054123c0.432373,0.028473 0.639221,0.23848 0.620728,0.629959c-0.018188,0.382385 -0.243347,0.559387 -0.675659,0.530884l-2.617065,-0.172363c-0.432251,-0.028442 -0.639404,-0.233887 -0.621277,-0.616302c0.018494,-0.391479 0.243958,-0.572983 0.67627,-0.544525l0.822205,0.054153l0.647827,-13.684341l-0.822144,-0.054138c-0.432312,-0.028458 -0.63916,-0.238449 -0.620605,-0.629959c0.018066,-0.38237 0.243286,-0.559357 0.675537,-0.530914l5.395569,0.369064c1.096191,0.072189 2.053589,0.541656 2.872131,1.408386c0.877197,0.934586 1.28595,2.034607 1.226013,3.30014c-0.087952,1.857391 -1.268555,3.158722 -3.541809,3.904037l3.164917,6.510239l0.822144,0.054138c0.432312,0.028473 0.63916,0.238495 0.620605,0.629974m-2.03595,-11.217056c0.04303,-0.910461 -0.294434,-1.713547 -1.012695,-2.409302c-0.658997,-0.637054 -1.390015,-0.982025 -2.19281,-1.034897l-3.578125,-0.235641l-0.310425,6.555344l2.651733,0.174622c0.972717,0.064072 1.900024,-0.139709 2.781982,-0.611343c1.057251,-0.578842 1.610718,-1.391769 1.660339,-2.438782" fill="#a8db60"/>
  </g>
  <g id="svg_64" transform="rotate(-31.938539505004883 182.59661865234366,93.83197021484374) ">
   <g id="svg_65">
    <path id="svg_66" d="m184.772583,112.672073l-17.070068,-35.206268l29.788208,-2.473938l-12.71814,37.680206z" fill="#a8db60"/>
    <path id="svg_67" d="m185.155884,96.755447c0.022827,0.382935 -0.182129,0.592361 -0.615051,0.628342l-2.620667,0.217636c-0.432922,0.03595 -0.660828,-0.137543 -0.683716,-0.520462c-0.023438,-0.392044 0.181396,-0.606049 0.614258,-0.641998l0.823364,-0.068375l-0.818237,-13.703461l-0.823364,0.06839c-0.432861,0.035934 -0.661072,-0.14212 -0.684448,-0.53418c-0.022888,-0.382919 0.182129,-0.592331 0.615112,-0.628311l2.620667,-0.217651c0.432922,-0.035934 0.660828,0.137543 0.683655,0.520462c0.023438,0.392075 -0.181335,0.606064 -0.614258,0.641998l-0.823303,0.068375l0.818237,13.703461l0.823303,-0.068375c0.432922,-0.03595 0.661072,0.142105 0.684448,0.534149" fill="#a8db60"/>
   </g>
  </g>
  <g id="svg_68" transform="rotate(-24.886188507080078 227.02178955078125,49.160491943359354) ">
   <path id="svg_69" d="m236.8078,69.860931l-24.432678,-30.274719l29.293335,-11.12616l-4.860657,41.400879z" fill="#a8db60"/>
   <path id="svg_70" d="m236.228271,47.037994c0.102844,0.376587 -0.172607,0.689026 -0.826416,0.937317l1.322021,4.841644c-1.21283,1.519531 -2.533936,2.55072 -3.963074,3.093567c-1.908203,0.724731 -3.620056,0.662445 -5.135803,-0.186859c-1.553406,-0.864685 -2.633728,-2.408783 -3.240845,-4.632355l-0.565552,-2.071106c-0.543579,-1.990448 -0.44873,-3.901733 0.284424,-5.733826c0.730713,-1.841064 1.936096,-3.080688 3.61615,-3.718811c1.543274,-0.586121 2.98291,-0.58374 4.31897,0.007233c-0.107666,-0.39447 -0.163635,-0.645386 -0.167725,-0.752686c-0.010193,-0.283112 0.106262,-0.470856 0.349609,-0.563263c0.319275,-0.121246 0.547485,0.069153 0.68457,0.571228l0.697815,2.555298c0.137085,0.502106 0.045959,0.813751 -0.273315,0.935059c-0.197693,0.075073 -0.369873,-0.017883 -0.516602,-0.278809c-0.288696,-0.503876 -0.475525,-0.804016 -0.560547,-0.900391c-0.327759,-0.3703 -0.776428,-0.615479 -1.346191,-0.735535c-0.922852,-0.183868 -1.855591,-0.096802 -2.798218,0.261261c-1.862549,0.707428 -3.02478,2.351196 -3.486511,4.931244c-0.180359,0.998718 -0.12738,2.022614 0.159119,3.071625l0.56189,2.057648c0.528809,1.936676 1.451904,3.258484 2.769287,3.965393c1.259521,0.679382 2.721741,0.702942 4.386658,0.070587c1.033813,-0.3927 2.059387,-1.138458 3.076721,-2.237366l-1.142151,-4.182617l-3.295532,1.25174c-0.42572,0.161682 -0.690002,0.05426 -0.792847,-0.322327c-0.105286,-0.385529 0.054993,-0.659119 0.480652,-0.820831l4.610657,-1.736389c0.42572,-0.161652 0.690002,-0.05423 0.792786,0.322327" fill="#a8db60"/>
  </g>
  <g id="svg_71" transform="rotate(-36.29036331176758 264.0217895507813,5.160491943359393) ">
   <path id="svg_72" d="m273.8078,25.860931l-24.432678,-30.274719l29.293335,-11.12616l-4.860657,41.400879z" fill="#a8db60"/>
   <path id="svg_73" d="m273.228271,3.037994c0.102844,0.376587 -0.172607,0.689041 -0.826416,0.937317l1.322021,4.841644c-1.21283,1.519516 -2.533936,2.55072 -3.963074,3.093552c-1.908203,0.724747 -3.620056,0.66246 -5.135803,-0.186844c-1.553406,-0.864685 -2.633728,-2.408783 -3.240845,-4.632355l-0.565552,-2.071121c-0.543579,-1.990433 -0.44873,-3.901703 0.284424,-5.733826c0.730713,-1.841049 1.936096,-3.080658 3.61615,-3.718796c1.543274,-0.586136 2.98291,-0.58374 4.31897,0.007233c-0.107666,-0.394485 -0.163635,-0.645386 -0.167725,-0.752686c-0.010193,-0.283096 0.106262,-0.470856 0.349609,-0.563278c0.319275,-0.121231 0.547485,0.069168 0.68457,0.571243l0.697815,2.555298c0.137085,0.502106 0.045959,0.813766 -0.273315,0.935043c-0.197693,0.075089 -0.369873,-0.017853 -0.516602,-0.278778c-0.288696,-0.503891 -0.475525,-0.804031 -0.560547,-0.900406c-0.327759,-0.370316 -0.776428,-0.615479 -1.346191,-0.73555c-0.922852,-0.183853 -1.855591,-0.096771 -2.798218,0.261276c-1.862549,0.707428 -3.02478,2.351196 -3.486511,4.931259c-0.180359,0.998718 -0.12738,2.022598 0.159119,3.071609l0.56189,2.057648c0.528809,1.936676 1.451904,3.258469 2.769287,3.965378c1.259521,0.679413 2.721741,0.702972 4.386658,0.070602c1.033813,-0.3927 2.059387,-1.138474 3.076721,-2.237366l-1.142151,-4.182617l-3.295532,1.251724c-0.42572,0.161713 -0.690002,0.054276 -0.792847,-0.322296c-0.105286,-0.385529 0.054993,-0.659149 0.480652,-0.820862l4.610657,-1.736374c0.42572,-0.161652 0.690002,-0.05423 0.792786,0.322327" fill="#a8db60"/>
  </g>
 </g>
</svg>